<?xml version="1.0" encoding="UTF-8"?>
<!DOCTYPE svg PUBLIC "-//W3C//DTD SVG 1.1//EN" "http://www.w3.org/Graphics/SVG/1.1/DTD/svg11.dtd">
<!-- Creator: CorelDRAW 2019 (64-Bit) -->
<svg xmlns="http://www.w3.org/2000/svg" xml:space="preserve" width="17px" height="17px" version="1.1" style="shape-rendering:geometricPrecision; text-rendering:geometricPrecision; image-rendering:optimizeQuality; fill-rule:evenodd; clip-rule:evenodd"
viewBox="0 0 0.34 0.34"
 xmlns:xlink="http://www.w3.org/1999/xlink"
 xmlns:xodm="http://www.corel.com/coreldraw/odm/2003">
 <defs>
  <style type="text/css">
   <![CDATA[
    .fil0 {fill:#EE3643}
   ]]>
  </style>
 </defs>
 <g id="Слой_x0020_1">
  <metadata id="CorelCorpID_0Corel-Layer"/>
  <path id="icon-search.svg" class="fil0" d="M0.27 0.24l0.07 0.07 -0.03 0.03 -0.07 -0.07c-0.02,0.02 -0.06,0.03 -0.09,0.03 -0.08,0 -0.15,-0.07 -0.15,-0.15 0,-0.08 0.07,-0.15 0.15,-0.15 0.08,0 0.15,0.07 0.15,0.15 0,0.03 -0.01,0.06 -0.03,0.09zm-0.12 -0.2c-0.06,0 -0.11,0.05 -0.11,0.11 0,0.06 0.05,0.11 0.11,0.11 0.06,0 0.11,-0.05 0.11,-0.11 0,-0.06 -0.05,-0.11 -0.11,-0.11z"/>
 </g>
</svg>
